#!OML:ASF I:\Actors\actors\Patient Classification 2\Patient 1\Session 1\actor1.ASF
:FULLY-SPECIFIED
:DEGREES
668
root -1.0822 18.5209 5.76034 -5.8328 -3.24682 -2.34531
lowerback 4.36261 0.340732 0.033944
upperback 1.82641 0.462071 0.829739
thorax -0.577809 0.228204 0.809295
lowerneck -3.57097 -15.469 -12.201
upperneck -9.79302 -19.8479 28.5879
head 2.20563 -10.0619 9.51548
rclavicle -8.13076e-015 1.3418e-014
rhumerus -23.6097 61.6901 -89.9825
rradius 92.8021
rwrist -1.96352
rhand 23.605 -23.0498
rfingers 7.12502
rthumb 47.8774 -45.3196
lclavicle -8.13076e-015 1.3418e-014
lhumerus -43.966 -8.29762 91.621
lradius 46.7565
lwrist -14.7787
lhand 12.2995 -21.1134
lfingers 7.12502
lthumb 37.3039 4.87187
rfemur 14.9518 4.77352 18.0084
rtibia -7.95139e-015
rfoot -16.0613 -8.85658
rtoes -11.0417
lfemur 1.99292 -5.69996 -11.5922
ltibia 23.1581
lfoot -21.6075 11.2485
ltoes -57.027
669
root -1.08508 18.5256 5.74358 -5.90876 -3.25025 -2.28001
lowerback 4.37842 0.353669 0.0942639
upperback 1.92416 0.479972 0.705374
thorax -0.48511 0.237541 0.647403
lowerneck -4.64266 -14.5353 -11.1324
upperneck -8.71816 -18.6338 26.8742
head 2.11251 -9.34117 8.90112
rclavicle 1.57009e-015 5.76476e-015
rhumerus -26.1307 58.9683 -91.482
rradius 91.2358
rwrist -1.85097
rhand 18.9599 -22.4341
rfingers 7.12502
rthumb 43.5649 -46.4773
lclavicle 1.57009e-015 5.76476e-015
lhumerus -43.7622 -7.54498 91.1162
lradius 46.5047
lwrist -14.9401
lhand 11.8473 -21.3798
lfingers 7.12502
lthumb 36.8763 4.71655
rfemur 14.9785 4.78209 17.9687
rtibia -1.59028e-015
rfoot -16.0497 -8.94479
rtoes -11.3064
lfemur 2.15162 -5.74534 -11.6718
ltibia 22.9384
lfoot -21.5372 11.3013
ltoes -57.0279
670
root -1.08126 18.5308 5.73232 -5.95082 -3.21751 -2.20161
lowerback 4.27804 0.346302 0.245605
upperback 2.04151 0.47357 0.554854
thorax -0.306272 0.23556 0.409703
lowerneck -5.68544 -13.5322 -10.0341
upperneck -7.61538 -17.3563 25.1639
head 2.05265 -8.60048 8.28309
rclavicle -9.11488e-015 1.59028e-015
rhumerus -28.0507 56.1294 -92.4274
rradius 89.615
rwrist -1.43409
rhand 14.9293 -22.6769
rfingers 7.12502
rthumb 39.7851 -47.9674
lclavicle -9.11488e-015 1.59028e-015
lhumerus -43.5664 -6.82784 90.6492
lradius 46.2831
lwrist -14.8525
lhand 10.9191 -21.7561
lfingers 7.12502
lthumb 35.9975 4.56101
rfemur 14.9819 4.76352 17.8713
rtibia -1.90833e-014
rfoot -16.045 -8.97039
rtoes -11.4477
lfemur 2.26198 -5.91957 -11.8144
ltibia 22.7687
lfoot -21.5365 11.398
ltoes -56.9102
671
root -1.07408 18.5392 5.72335 -5.85889 -3.00318 -2.22676
lowerback 4.07225 0.279848 0.522184
upperback 2.12297 0.392513 0.440302
thorax -0.104828 0.197627 0.142303
lowerneck -6.72283 -12.5258 -9.06899
upperneck -6.42726 -16.1124 23.622
head 2.09653 -7.87872 7.72104
rclavicle -3.51639e-015 4.17448e-015
rhumerus -29.5033 53.145 -92.9936
rradius 87.9826
rwrist -0.632369
rhand 11.2623 -23.853
rfingers 7.12502
rthumb 36.3226 -50.0896
lclavicle -3.51639e-015 4.17448e-015
lhumerus -43.3805 -6.23269 90.3001
lradius 46.054
lwrist -14.6104
lhand 8.72779 -22.5882
lfingers 7.12502
lthumb 33.9187 4.21353
rfemur 14.8788 4.55137 17.8373
rtibia -3.18055e-014
rfoot -16.0382 -8.95637
rtoes -11.5747
lfemur 2.15774 -6.27416 -11.8556
ltibia 22.6459
lfoot -21.5262 11.4969
ltoes -56.7983
672
root -1.06559 18.5486 5.71401 -5.66898 -2.73205 -2.32866
lowerback 3.8415 0.200212 0.822444
upperback 2.1559 0.293828 0.389514
thorax 0.0594471 0.151367 -0.0729508
lowerneck -7.8867 -11.5563 -8.14692
upperneck -5.08269 -14.952 22.0221
head 2.25434 -7.19112 7.12257
rclavicle -7.12363e-015 1.33186e-014
rhumerus -30.613 50.0401 -93.246
rradius 86.3972
rwrist 0.500267
rhand 8.41546 -25.6717
rfingers 7.12502
rthumb 33.6219 -52.5386
lclavicle -7.12363e-015 1.33186e-014
lhumerus -43.1492 -5.57615 90.013
lradius 45.7268
lwrist -14.4837
lhand 9.22983 -22.6624
lfingers 7.12502
lthumb 34.3955 4.03271
rfemur 14.6759 4.27115 17.8693
rtibia -3.33958e-014
rfoot -16.0457 -8.91992
rtoes -11.2993
lfemur 1.89981 -6.65877 -11.7996
ltibia 22.5671
lfoot -21.5231 11.5976
ltoes -56.706
673
root -1.05421 18.5571 5.70583 -5.47204 -2.47117 -2.41653
lowerback 3.62041 0.129521 1.07899
upperback 2.16695 0.204597 0.366927
thorax 0.194672 0.109663 -0.235883
lowerneck -8.94744 -10.5334 -7.07453
upperneck -3.86035 -13.7173 20.2234
head 2.35646 -6.49556 6.45753
rclavicle -9.47799e-015 5.1684e-015
rhumerus -31.5473 46.7862 -93.2057
rradius 84.9015
rwrist 1.99656
rhand 6.26148 -27.6604
rfingers 7.12502
rthumb 31.5724 -54.9512
lclavicle -9.47799e-015 5.1684e-015
lhumerus -42.8899 -4.8533 89.7675
lradius 45.3261
lwrist -14.3585
lhand 8.06282 -22.9326
lfingers 7.12502
lthumb 33.2868 4.00671
rfemur 14.4609 4.00532 17.8761
rtibia -6.36111e-015
rfoot -16.051 -8.88228
rtoes -10.9808
lfemur 1.62877 -6.96044 -11.7503
ltibia 22.5146
lfoot -21.5158 11.6972
ltoes -56.7033
